<svg width="51" height="52" viewBox="0 0 51 52" fill="none" xmlns="http://www.w3.org/2000/svg">
<path d="M8.5 41.5591V9.68408C8.5 8.27512 9.05971 6.92386 10.056 5.92758C11.0523 4.93129 12.4035 4.37158 13.8125 4.37158H40.375C40.9386 4.37158 41.4791 4.59547 41.8776 4.99398C42.2761 5.39249 42.5 5.933 42.5 6.49658V44.7466C42.5 45.3102 42.2761 45.8507 41.8776 46.2492C41.4791 46.6477 40.9386 46.8716 40.375 46.8716H13.8125C12.4035 46.8716 11.0523 46.3119 10.056 45.3156C9.05971 44.3193 8.5 42.968 8.5 41.5591ZM8.5 41.5591C8.5 40.1501 9.05971 38.7989 10.056 37.8026C11.0523 36.8063 12.4035 36.2466 13.8125 36.2466H42.5" stroke="white" stroke-width="2" stroke-linecap="round" stroke-linejoin="round"/>
<path d="M18.3175 20.9466C17.8705 20.4805 17.5225 19.9286 17.2945 19.3244C17.0666 18.7201 16.9635 18.0759 16.9913 17.4306C17.0192 16.7854 17.1775 16.1525 17.4567 15.5701C17.7359 14.9877 18.1302 14.468 18.6157 14.0421C19.1013 13.6163 19.6681 13.2933 20.282 13.0925C20.8958 12.8918 21.544 12.8175 22.1874 12.8741C22.8307 12.9308 23.4559 13.1171 24.0253 13.422C24.5946 13.7269 25.0963 14.144 25.5 14.6481C25.9057 14.1493 26.4078 13.7374 26.9763 13.4371C27.5449 13.1368 28.1681 12.9542 28.8088 12.9003C29.4495 12.8465 30.0945 12.9224 30.7052 13.1235C31.3159 13.3247 31.8798 13.6469 32.363 14.071C32.8463 14.4951 33.2391 15.0123 33.5179 15.5917C33.7967 16.1711 33.9557 16.8007 33.9856 17.443C34.0154 18.0853 33.9154 18.727 33.6915 19.3297C33.4676 19.9324 33.1244 20.4838 32.6825 20.9508L27.1023 27.0198C26.9032 27.2491 26.6572 27.4329 26.381 27.5588C26.1047 27.6848 25.8047 27.75 25.5011 27.75C25.1975 27.75 24.8974 27.6848 24.6212 27.5588C24.3449 27.4329 24.099 27.2491 23.8999 27.0198L18.3175 20.9466Z" stroke="white" stroke-width="2" stroke-linecap="round" stroke-linejoin="round"/>
</svg>
