<svg width="52" height="53" viewBox="0 0 52 53" fill="none" xmlns="http://www.w3.org/2000/svg">
<path d="M47.6666 24.2915L44.8586 21.4295C44.3752 20.9328 43.8001 20.5385 43.1664 20.2694C42.5328 20.0003 41.8531 19.8618 41.1666 19.8618C40.4802 19.8618 39.8005 20.0003 39.1669 20.2694C38.5332 20.5385 37.9581 20.9328 37.4746 21.4295L23.8333 35.3332" stroke="white" stroke-width="2" stroke-linecap="round" stroke-linejoin="round"/>
<path d="M8.66665 17.6667C7.51737 17.6667 6.41517 18.1321 5.60252 18.9604C4.78986 19.7886 4.33331 20.912 4.33331 22.0834V44.1667C4.33331 45.3381 4.78986 46.4615 5.60252 47.2898C6.41517 48.1181 7.51737 48.5834 8.66665 48.5834H30.3333C31.4826 48.5834 32.5848 48.1181 33.3974 47.2898C34.2101 46.4615 34.6666 45.3381 34.6666 44.1667" stroke="white" stroke-width="2" stroke-linecap="round" stroke-linejoin="round"/>
<path d="M28.1667 17.6667C29.3633 17.6667 30.3333 16.678 30.3333 15.4583C30.3333 14.2387 29.3633 13.25 28.1667 13.25C26.97 13.25 26 14.2387 26 15.4583C26 16.678 26.97 17.6667 28.1667 17.6667Z" fill="white" stroke="white" stroke-width="2" stroke-linecap="round" stroke-linejoin="round"/>
<path d="M43.3333 4.41675H21.6666C19.2734 4.41675 17.3333 6.39416 17.3333 8.83342V30.9167C17.3333 33.356 19.2734 35.3334 21.6666 35.3334H43.3333C45.7265 35.3334 47.6666 33.356 47.6666 30.9167V8.83342C47.6666 6.39416 45.7265 4.41675 43.3333 4.41675Z" stroke="white" stroke-width="2" stroke-linecap="round" stroke-linejoin="round"/>
</svg>
