<svg width="52" height="54" viewBox="0 0 52 54" fill="none" xmlns="http://www.w3.org/2000/svg">
<path d="M47.6666 25.2535L44.8586 22.3915C44.3752 21.8947 43.8001 21.5004 43.1664 21.2313C42.5328 20.9623 41.8531 20.8237 41.1666 20.8237C40.4802 20.8237 39.8005 20.9623 39.1669 21.2313C38.5332 21.5004 37.9581 21.8947 37.4746 22.3915L23.8333 36.2951" stroke="white" stroke-width="2" stroke-linecap="round" stroke-linejoin="round"/>
<path d="M8.66665 18.6287C7.51737 18.6287 6.41517 19.094 5.60252 19.9223C4.78986 20.7506 4.33331 21.874 4.33331 23.0453V45.1287C4.33331 46.3 4.78986 47.4234 5.60252 48.2517C6.41517 49.08 7.51737 49.5453 8.66665 49.5453H30.3333C31.4826 49.5453 32.5848 49.08 33.3974 48.2517C34.2101 47.4234 34.6666 46.3 34.6666 45.1287" stroke="white" stroke-width="2" stroke-linecap="round" stroke-linejoin="round"/>
<path d="M28.1667 18.6286C29.3633 18.6286 30.3333 17.6399 30.3333 16.4202C30.3333 15.2006 29.3633 14.2119 28.1667 14.2119C26.97 14.2119 26 15.2006 26 16.4202C26 17.6399 26.97 18.6286 28.1667 18.6286Z" fill="white" stroke="white" stroke-width="2" stroke-linecap="round" stroke-linejoin="round"/>
<path d="M43.3333 5.37866H21.6666C19.2734 5.37866 17.3333 7.35607 17.3333 9.79533V31.8787C17.3333 34.3179 19.2734 36.2953 21.6666 36.2953H43.3333C45.7265 36.2953 47.6666 34.3179 47.6666 31.8787V9.79533C47.6666 7.35607 45.7265 5.37866 43.3333 5.37866Z" stroke="white" stroke-width="2" stroke-linecap="round" stroke-linejoin="round"/>
</svg>
