<svg width="55" height="54" viewBox="0 0 55 54" fill="none" xmlns="http://www.w3.org/2000/svg">
<path d="M9.09131 45.008H45.0913C46.2848 45.008 47.4294 44.5427 48.2733 43.7144C49.1172 42.8861 49.5913 41.7627 49.5913 40.5913V18.508C49.5913 17.3366 49.1172 16.2132 48.2733 15.3849C47.4294 14.5566 46.2848 14.0913 45.0913 14.0913H27.2488C26.5076 14.0875 25.7789 13.9042 25.1273 13.5574C24.4757 13.2107 23.9215 12.7114 23.5138 12.1038L21.6688 9.45381C21.2612 8.84625 20.7069 8.34692 20.0553 8.00019C19.4038 7.65347 18.675 7.47007 17.9338 7.46631H9.09131C7.89783 7.46631 6.75324 7.93163 5.90933 8.75992C5.06541 9.58821 4.59131 10.7116 4.59131 11.883V40.5913C4.59131 43.0205 6.61631 45.008 9.09131 45.008Z" stroke="white" stroke-width="2" stroke-linecap="round" stroke-linejoin="round"/>
<path d="M18.0913 22.9246V31.7579" stroke="white" stroke-width="2" stroke-linecap="round" stroke-linejoin="round"/>
<path d="M27.0913 22.9246V27.3412" stroke="white" stroke-width="2" stroke-linecap="round" stroke-linejoin="round"/>
<path d="M36.0913 22.9246V36.1746" stroke="white" stroke-width="2" stroke-linecap="round" stroke-linejoin="round"/>
</svg>
