<svg width="39" height="39" viewBox="0 0 39 39" fill="none" xmlns="http://www.w3.org/2000/svg">
<path d="M4.75804 37.9613H34.0914C35.0638 37.9613 35.9965 37.575 36.6841 36.8874C37.3717 36.1998 37.758 35.2671 37.758 34.2947V4.96134C37.758 3.98888 37.3717 3.05625 36.6841 2.36862C35.9965 1.68099 35.0638 1.29468 34.0914 1.29468H12.0914C11.1189 1.29468 10.1863 1.68099 9.49864 2.36862C8.81101 3.05625 8.4247 3.98888 8.4247 4.96134V34.2947C8.4247 35.2671 8.03839 36.1998 7.35076 36.8874C6.66313 37.575 5.7305 37.9613 4.75804 37.9613ZM4.75804 37.9613C3.78558 37.9613 2.85294 37.575 2.16531 36.8874C1.47768 36.1998 1.09137 35.2671 1.09137 34.2947V17.7947C1.09137 16.8222 1.47768 15.8896 2.16531 15.202C2.85294 14.5143 3.78558 14.128 4.75804 14.128H8.4247" stroke="white" stroke-width="2" stroke-linecap="round" stroke-linejoin="round"/>
</svg>
